<?xml version="1.0" encoding="utf-8"?>
<!-- Generator: Adobe Illustrator 24.0.3, SVG Export Plug-In . SVG Version: 6.00 Build 0)  -->
<svg version="1.1" id="Ebene_1" xmlns="http://www.w3.org/2000/svg" xmlns:xlink="http://www.w3.org/1999/xlink" x="0px" y="0px"
	 viewBox="0 0 283.5 283.5" style="enable-background:new 0 0 283.5 283.5;" xml:space="preserve">
<style type="text/css">
	.st0{opacity:0.5;}
	.st1{fill:#FFFFFF;}
</style>
<g class="st0">
	<path class="st1" d="M141.7,1.4l140.3,140.3L141.7,282.1L1.4,141.7L141.7,1.4 M141.7,0L0,141.7l141.7,141.7l141.7-141.7L141.7,0
		L141.7,0z"/>
</g>
<g class="st0">
	<path class="st1" d="M153.1,0L153.1,0c0,6.2-5.1,11.4-11.4,11.4h0c-6.2,0-11.4-5.1-11.4-11.4v0C130.4,0,153.1,0,153.1,0z"/>
</g>
<g class="st0">
	<path class="st1" d="M130.4,283.5L130.4,283.5c0-6.2,5.1-11.4,11.4-11.4h0c6.2,0,11.4,5.1,11.4,11.4l0,0H130.4z"/>
</g>
</svg>
